<svg width="431" height="512" viewBox="0 0 431 512" fill="none" xmlns="http://www.w3.org/2000/svg">
<rect width="430.695" height="511.263" fill="white"/>
<path d="M73.8726 293.134C73.8726 246.343 197.125 154.715 197.125 124.836C197.125 114.763 185.161 111.836 172.792 111.836C146.857 111.836 74.6649 143.026 74.6649 189.171C74.6649 206.067 85.4331 215.493 105.773 220.036C90.3969 228.476 68.6017 223.432 60 208.864V315.366H87.4542C79.2891 310.661 73.8564 301.833 73.8564 293.151L73.8726 293.134Z" fill="black"/>
<path d="M182.768 104.69C197.045 104.69 207.958 107.746 215.218 112.241L169.687 60H60.0162V181.296C71.5929 154.085 110.802 104.69 182.768 104.69Z" fill="black"/>
<path d="M122.88 315.35H174.441V286.02C157.674 299.23 140.051 310.079 122.88 315.35Z" fill="black"/>
<path d="M337.727 132.225C312.31 159.841 246.149 264.532 246.149 298.987C246.149 307.767 252.535 312.31 262.107 312.31C280.862 312.31 305.584 283.724 305.584 250.579C312.375 255.445 315.56 262.608 315.56 269.755C315.56 288.365 301.105 306.813 281.865 315.382H370.695V60H261.024L215.234 112.241C223.351 117.495 226.617 124.464 226.617 130.349C226.617 163.479 100.971 269.415 100.971 298.648C100.971 305.148 104.156 306.441 111.335 306.441C169.17 306.441 270.094 169.865 299.99 132.176L337.743 132.225H337.727Z" fill="#0067B1"/>
<path d="M60.1455 361.964C60.1455 382.093 70.2185 388.997 88.3273 388.997C107.746 388.997 116.428 380.8 116.428 362.044V328.996H97.2685V364.001C97.2685 370.339 95.2312 374.721 88.3273 374.721C80.4532 374.721 79.3214 369.773 79.3214 364.001V328.996H60.1455V361.964Z" fill="black"/>
<path d="M143.575 387.462V367.639L143.171 358.552L142.363 349.951H142.524L153.163 387.462H166.486L177.125 349.951H177.287L176.3 360.493L176.058 369.595V387.462H193.277V328.996H170.14L159.825 365.456L149.509 328.996H126.372V387.462H143.575Z" fill="black"/>
<path d="M238.129 328.996H218.63L197.675 387.462H216.431L218.613 379.749H237.692L239.956 387.462H259.051L238.097 328.996H238.129ZM222.3 367.558L228.234 346.604L234.41 367.558H222.316H222.3Z" fill="black"/>
<path d="M311.599 345.957C310.224 335.722 302.835 327.444 286.586 327.444C271.97 327.444 261.25 333.701 261.25 346.119C261.25 368.447 294.864 362.352 294.864 371.212C294.864 373.977 291.695 375.513 286.909 375.513C285.034 375.513 283.013 375.028 281.461 374.058C279.828 373.088 278.696 371.536 278.292 369.434H259.94C260.344 379.976 270.417 388.998 285.842 388.998C301.267 388.998 313.199 382.417 313.199 368.852C313.199 347.574 279.585 353.023 279.585 344.259C279.585 342.141 281.444 340.929 285.681 340.929C287.54 340.929 289.254 341.252 290.628 341.98C292.002 342.707 293.07 343.936 293.393 345.957H311.583H311.599Z" fill="black"/>
<path d="M369.143 345.957C367.752 335.722 360.379 327.444 344.13 327.444C329.514 327.444 318.794 333.701 318.794 346.119C318.794 368.447 352.408 362.352 352.408 371.212C352.408 373.977 349.239 375.513 344.453 375.513C342.578 375.513 340.557 375.028 339.004 374.058C337.388 373.088 336.24 371.536 335.835 369.434H317.484C317.888 379.976 327.961 388.998 343.386 388.998C358.811 388.998 370.76 382.417 370.76 368.852C370.76 347.574 337.145 353.023 337.145 344.259C337.145 342.141 339.004 340.929 343.241 340.929C345.1 340.929 346.814 341.252 348.188 341.98C349.579 342.707 350.63 343.936 350.953 345.957H369.143Z" fill="black"/>
<path d="M60.0162 400.073H76.5728V438.134H100.357V451.263H60.0162V400.073Z" fill="#0067B1"/>
<path d="M127.665 398.844C143.996 398.844 154.909 410.033 154.909 425.652C154.909 441.271 143.996 452.459 127.665 452.459C111.335 452.459 100.421 441.271 100.421 425.652C100.421 410.033 111.335 398.844 127.665 398.844ZM127.665 439.718C131.885 439.718 138.353 437.067 138.353 425.668C138.353 414.269 131.885 411.617 127.665 411.617C123.445 411.617 116.978 414.269 116.978 425.668C116.978 437.067 123.445 439.718 127.665 439.718Z" fill="#0067B1"/>
<path d="M212.033 451.247H195.929L190.141 420.057H189.995L184.352 451.247H168.168L153.567 400.057H169.817L176.365 431.666H176.511L182.978 400.057H197.578L203.9 432.103H204.046L210.739 400.057H227.07L212.017 451.247H212.033Z" fill="#0067B1"/>
<path d="M231.92 400.073H276.4V413.186H248.477V419.572H273.845V431.763H248.477V438.15H277.224V451.279H231.92V400.089V400.073Z" fill="#0067B1"/>
<path d="M284.08 400.073H300.637V438.134H324.42V451.263H284.08V400.073Z" fill="#0067B1"/>
<path d="M330.144 400.073H346.701V438.134H370.485V451.263H330.144V400.073Z" fill="#0067B1"/>
</svg>
