<svg width="311" height="393" viewBox="0 0 311 393" fill="none" xmlns="http://www.w3.org/2000/svg">
<g clip-path="url(#clip0_1035_26)">
<path d="M13.8564 233.134C13.8564 186.343 137.109 94.7154 137.109 64.8359C137.109 54.7629 125.145 51.8364 112.776 51.8364C86.8413 51.8364 14.6487 83.0255 14.6487 129.171C14.6487 146.067 25.417 155.493 45.757 160.036C30.3807 168.476 8.5855 163.432 -0.0161743 148.864V255.366H27.438C19.2729 250.661 13.8403 241.833 13.8403 233.151L13.8564 233.134Z" fill="black"/>
<path d="M122.752 44.6899C137.028 44.6899 147.942 47.7457 155.202 52.2406L109.671 0H0V121.296C11.5767 94.0848 50.7854 44.6899 122.752 44.6899Z" fill="black"/>
<path d="M62.8633 255.35H114.425V226.02C97.6581 239.23 80.0343 250.079 62.8633 255.35Z" fill="black"/>
<path d="M277.711 72.2249C252.294 99.8408 186.132 204.532 186.132 238.987C186.132 247.767 192.519 252.31 202.091 252.31C220.846 252.31 245.568 223.724 245.568 190.579C252.359 195.445 255.544 202.608 255.544 209.755C255.544 228.365 241.089 246.813 221.849 255.382H310.679V0H201.007L155.218 52.2406C163.335 57.4954 166.601 64.464 166.601 70.3494C166.601 103.479 40.9549 209.415 40.9549 238.648C40.9549 245.148 44.1401 246.441 51.3189 246.441C109.154 246.441 210.078 109.865 239.974 72.1764L277.727 72.2249H277.711Z" fill="#0067B1"/>
<path d="M0.129333 301.964C0.129333 322.093 10.2023 328.997 28.3111 328.997C47.7295 328.997 56.4121 320.8 56.4121 302.044V268.996H37.2523V304.001C37.2523 310.339 35.2151 314.721 28.3111 314.721C20.437 314.721 19.3052 309.773 19.3052 304.001V268.996H0.129333V301.964Z" fill="black"/>
<path d="M83.559 327.462V307.639L83.1548 298.552L82.3464 289.951H82.5081L93.147 327.462H106.47L117.109 289.951H117.27L116.284 300.493L116.042 309.595V327.462H133.261V268.996H110.124L99.8084 305.456L89.4929 268.996H66.3557V327.462H83.559Z" fill="black"/>
<path d="M178.113 268.996H158.613L137.659 327.462H156.415L158.597 319.749H177.676L179.94 327.462H199.035L178.08 268.996H178.113ZM162.284 307.558L168.218 286.604L174.394 307.558H162.3H162.284Z" fill="black"/>
<path d="M251.583 285.957C250.208 275.722 242.819 267.444 226.57 267.444C211.953 267.444 201.234 273.701 201.234 286.119C201.234 308.447 234.848 302.352 234.848 311.212C234.848 313.977 231.679 315.513 226.893 315.513C225.018 315.513 222.997 315.028 221.444 314.058C219.811 313.088 218.68 311.536 218.275 309.434H199.924C200.328 319.976 210.401 328.998 225.826 328.998C241.251 328.998 253.183 322.417 253.183 308.852C253.183 287.574 219.569 293.023 219.569 284.259C219.569 282.141 221.428 280.929 225.664 280.929C227.524 280.929 229.238 281.252 230.612 281.98C231.986 282.707 233.053 283.936 233.377 285.957H251.566H251.583Z" fill="black"/>
<path d="M309.127 285.957C307.736 275.722 300.363 267.444 284.114 267.444C269.497 267.444 258.778 273.701 258.778 286.119C258.778 308.447 292.392 302.352 292.392 311.212C292.392 313.977 289.223 315.513 284.437 315.513C282.562 315.513 280.541 315.028 278.988 314.058C277.372 313.088 276.224 311.536 275.819 309.434H257.468C257.872 319.976 267.945 328.998 283.37 328.998C298.795 328.998 310.743 322.417 310.743 308.852C310.743 287.574 277.129 293.023 277.129 284.259C277.129 282.141 278.988 280.929 283.225 280.929C285.084 280.929 286.798 281.252 288.172 281.98C289.563 282.707 290.614 283.936 290.937 285.957H309.127Z" fill="black"/>
<path d="M0 340.073H16.5566V378.134H40.3405V391.263H0V340.073Z" fill="#0067B1"/>
<path d="M67.6492 338.844C83.9795 338.844 94.8932 350.033 94.8932 365.652C94.8932 381.271 83.9795 392.459 67.6492 392.459C51.319 392.459 40.4052 381.271 40.4052 365.652C40.4052 350.033 51.319 338.844 67.6492 338.844ZM67.6492 379.718C71.8692 379.718 78.3366 377.067 78.3366 365.668C78.3366 354.269 71.8692 351.617 67.6492 351.617C63.4292 351.617 56.9618 354.269 56.9618 365.668C56.9618 377.067 63.4292 379.718 67.6492 379.718Z" fill="#0067B1"/>
<path d="M152.017 391.247H135.913L130.124 360.057H129.979L124.336 391.247H108.151L93.5512 340.057H109.801L116.349 371.666H116.494L122.962 340.057H137.562L143.884 372.103H144.029L150.723 340.057H167.053L152.001 391.247H152.017Z" fill="#0067B1"/>
<path d="M171.904 340.073H216.384V353.186H188.461V359.572H213.829V371.763H188.461V378.15H217.208V391.279H171.904V340.089V340.073Z" fill="#0067B1"/>
<path d="M224.064 340.073H240.62V378.134H264.404V391.263H224.064V340.073Z" fill="#0067B1"/>
<path d="M270.128 340.073H286.685V378.134H310.469V391.263H270.128V340.073Z" fill="#0067B1"/>
</g>
<defs>
<clipPath id="clip0_1035_26">
<rect width="310.743" height="392.475" fill="white"/>
</clipPath>
</defs>
</svg>
